<svg width="50" height="50" viewBox="0 0 50 50" fill="none" xmlns="http://www.w3.org/2000/svg">
<path d="M0 25C0 11.1929 11.1929 0 25 0C38.8071 0 50 11.1929 50 25C50 38.8071 38.8071 50 25 50C11.1929 50 0 38.8071 0 25Z" fill="#FEBD11"/>
<path d="M14.4822 30.1055C13.5624 29.2025 12.7565 28.4388 12.0645 27.8143C11.3725 27.1814 10.7649 26.6456 10.2417 26.2068C9.71854 25.7595 9.24596 25.3671 8.82402 25.0295C9.21221 24.6667 9.69322 24.1814 10.2671 23.5738C10.8409 22.9578 11.4654 22.2616 12.1405 21.4852C12.8156 20.7004 13.4949 19.8734 14.1785 19.0042L14.419 19.1308C13.8029 20.3713 13.2502 21.4515 12.7607 22.3713C12.2713 23.2911 11.8198 24.1266 11.4063 24.8776C11.727 25.4093 12.1574 26.0928 12.6974 26.9283C13.2375 27.7553 13.9042 28.7511 14.6974 29.9156L14.4822 30.1055ZM16.2164 30.0042C16.132 28.6962 16.0519 27.5654 15.9759 26.6118C15.9 25.6498 15.824 24.8186 15.7481 24.1181C15.6806 23.4093 15.6046 22.7848 15.5202 22.2447C15.4358 21.7046 15.3388 21.2025 15.2291 20.7384C15.1278 20.2658 15.0055 19.7806 14.862 19.2827C15.0814 19.3249 15.3008 19.3586 15.5202 19.384C15.7396 19.4093 15.9633 19.4219 16.1911 19.4219C16.4274 19.4219 16.6595 19.4093 16.8873 19.384C17.1236 19.3586 17.3599 19.3249 17.5962 19.2827C17.478 19.7046 17.3725 20.1477 17.2797 20.6118C17.1869 21.0759 17.1025 21.5949 17.0266 22.1688C16.9506 22.7426 16.8831 23.4008 16.824 24.1435C16.7649 24.8861 16.7101 25.7384 16.6595 26.7004C16.6173 27.654 16.5793 28.7553 16.5455 30.0042H16.2164Z" fill="#5C0507"/>
<path d="M29.2356 30.0042C29.1512 28.6878 29.0711 27.5527 28.9951 26.5992C28.9192 25.6371 28.8432 24.8059 28.7673 24.1055C28.6913 23.4051 28.6111 22.7848 28.5268 22.2447C28.4424 21.7046 28.3495 21.1983 28.2483 20.7257C28.147 20.2532 28.0246 19.7679 27.8812 19.27C28.3116 19.3713 28.7546 19.4219 29.2103 19.4219C29.666 19.4219 30.1343 19.3713 30.6154 19.27C30.4972 19.692 30.3917 20.1392 30.2989 20.6118C30.2061 21.0759 30.1217 21.5949 30.0457 22.1688C29.9698 22.7426 29.9023 23.4008 29.8432 24.1435C29.7841 24.8776 29.7293 25.7257 29.6787 26.6878C29.6365 27.6498 29.5985 28.7553 29.5647 30.0042H29.2356ZM21.7926 22.9283C21.8263 22.7089 21.8516 22.4895 21.8685 22.27C21.8854 22.0506 21.8938 21.827 21.8938 21.5992C21.8938 21.3797 21.8812 21.1561 21.8559 20.9283C21.839 20.692 21.801 20.4473 21.7419 20.1941C22.2398 20.4051 22.9909 20.6118 23.9951 20.8143C24.9993 21.0084 26.2525 21.1519 27.7546 21.2447V21.5485C26.6829 21.6835 25.7673 21.827 25.0078 21.9789C24.2567 22.1224 23.6238 22.2743 23.109 22.4346C22.5943 22.5949 22.1554 22.7595 21.7926 22.9283ZM23.3116 25.9789C23.3453 25.7595 23.3706 25.5401 23.3875 25.3207C23.4044 25.1013 23.4128 24.8776 23.4128 24.6498C23.4128 24.4304 23.4002 24.2067 23.3749 23.9789C23.358 23.7511 23.32 23.5105 23.2609 23.2574C23.6322 23.4684 24.2398 23.6709 25.0837 23.865C25.936 24.0591 26.9529 24.2068 28.1343 24.308V24.5992C26.8685 24.8101 25.8474 25.0295 25.0711 25.2574C24.3031 25.4768 23.7166 25.7173 23.3116 25.9789ZM22.4255 29.1688C22.4592 28.9494 22.4846 28.73 22.5014 28.5105C22.5183 28.2911 22.5267 28.0675 22.5267 27.8397C22.5267 27.6203 22.5141 27.3924 22.4888 27.1561C22.4719 26.9198 22.4339 26.6793 22.3749 26.4346C22.8727 26.6456 23.6238 26.8481 24.628 27.0422C25.6322 27.2363 26.8854 27.384 28.3875 27.4852V27.7764C27.3158 27.9198 26.4002 28.0675 25.6407 28.2194C24.8896 28.3629 24.2567 28.5148 23.7419 28.6751C23.2272 28.8354 22.7884 29 22.4255 29.1688Z" fill="#5C0507"/>
<path d="M34.4039 21.6878C34.4292 21.4684 34.4503 21.2532 34.4672 21.0422C34.4841 20.8312 34.4925 20.616 34.4925 20.3966C34.4925 20.1688 34.4799 19.9367 34.4546 19.7004C34.4377 19.4641 34.4039 19.2152 34.3533 18.9536C34.6824 19.097 35.1887 19.2363 35.8723 19.3713C36.5558 19.5063 37.3491 19.6287 38.252 19.7384C39.1634 19.8397 40.1128 19.9283 41.1001 20.0042V20.2954C39.4968 20.5063 38.1128 20.7257 36.9482 20.9536C35.7837 21.173 34.9356 21.4177 34.4039 21.6878ZM39.2647 29.9409C39.1803 28.9705 39.1001 28.1308 39.0242 27.4219C38.9482 26.7046 38.8723 26.0886 38.7963 25.5738C38.7288 25.0506 38.6529 24.5907 38.5685 24.1941C38.4841 23.7975 38.387 23.4262 38.2773 23.0802C38.1761 22.7342 38.0537 22.3797 37.9103 22.0169C38.366 22.0928 38.8216 22.1308 39.2773 22.1308C39.6993 22.1308 40.155 22.0928 40.6444 22.0169C40.501 22.4051 40.3744 22.8228 40.2647 23.27C40.155 23.7089 40.0579 24.2278 39.9735 24.827C39.8892 25.4262 39.8132 26.1392 39.7457 26.9662C39.6866 27.7932 39.636 28.7848 39.5938 29.9409H39.2647ZM36.1381 29.9409C36.0537 28.9705 35.9735 28.1308 35.8976 27.4219C35.8216 26.7046 35.7457 26.0886 35.6697 25.5738C35.6022 25.0506 35.5263 24.5907 35.4419 24.1941C35.3575 23.7975 35.2605 23.4262 35.1508 23.0802C35.0495 22.7342 34.9271 22.3797 34.7837 22.0169C35.2394 22.0928 35.6951 22.1308 36.1508 22.1308C36.5727 22.1308 37.0284 22.0928 37.5178 22.0169C37.3744 22.4051 37.2478 22.8228 37.1381 23.27C37.0284 23.7089 36.9314 24.2278 36.847 24.827C36.7626 25.4262 36.6866 26.1392 36.6191 26.9662C36.56 27.7932 36.5094 28.7848 36.4672 29.9409H36.1381Z" fill="#5C0507"/>
<path d="M25.689 33.6667H25.2354V31.827H25.689V31.9979H25.4422V33.4958H25.689V33.6667Z" fill="#5C0507"/>
<path d="M26.3295 31.827C26.4505 31.827 26.5503 31.8432 26.6291 31.8755C26.7079 31.9079 26.7662 31.9564 26.8042 32.0211C26.8436 32.0844 26.8633 32.1646 26.8633 32.2616C26.8633 32.339 26.8499 32.4044 26.8232 32.4578C26.7979 32.5098 26.7641 32.5527 26.7219 32.5865C26.6811 32.6188 26.6368 32.6449 26.589 32.6646L26.9878 33.3333H26.7219L26.3865 32.7236H26.1565V33.3333H25.9224V31.827H26.3295ZM26.319 32.0211H26.1565V32.5338H26.3232C26.3921 32.5338 26.4484 32.5239 26.492 32.5042C26.537 32.4845 26.57 32.455 26.5911 32.4156C26.6136 32.3762 26.6249 32.3277 26.6249 32.27C26.6249 32.2096 26.6136 32.1617 26.5911 32.1266C26.57 32.09 26.5363 32.0633 26.4899 32.0464C26.4449 32.0295 26.3879 32.0211 26.319 32.0211Z" fill="#5C0507"/>
<path d="M27.0544 33.4958H27.3013V31.9979H27.0544V31.827H27.508V33.6667H27.0544V33.4958Z" fill="#5C0507"/>
<path d="M37.1449 33.6667H36.6913V31.827H37.1449V31.9979H36.8981V33.4958H37.1449V33.6667Z" fill="#5C0507"/>
<path d="M38.5322 32.5654C38.5322 32.7342 38.502 32.8755 38.4415 32.9895C38.3824 33.1034 38.2973 33.1892 38.1862 33.2468C38.0751 33.3045 37.9408 33.3333 37.7833 33.3333H37.3782V31.827H37.8255C37.9703 31.827 38.0955 31.8551 38.201 31.9114C38.3065 31.9676 38.3881 32.0506 38.4457 32.1603C38.5034 32.2686 38.5322 32.4037 38.5322 32.5654ZM38.2875 32.5717C38.2875 32.4451 38.2692 32.3411 38.2326 32.2595C38.1961 32.1779 38.1419 32.1174 38.0702 32.0781C37.9999 32.0387 37.9134 32.019 37.8107 32.019H37.6124V33.1413H37.7769C37.9471 33.1413 38.0744 33.0935 38.1588 32.9979C38.2446 32.9023 38.2875 32.7602 38.2875 32.5717Z" fill="#5C0507"/>
<path d="M38.6998 33.4958H38.9467V31.9979H38.6998V31.827H39.1534V33.6667H38.6998V33.4958Z" fill="#5C0507"/>
<path d="M13.2467 33.6667H12.7931V31.827H13.2467V31.9979H12.9999V33.4958H13.2467V33.6667Z" fill="#5C0507"/>
<path d="M14.5623 33.3333H14.2923L13.8513 32.6392L13.7142 32.7616V33.3333H13.48V31.827H13.7142V32.5549C13.7466 32.5113 13.7796 32.4684 13.8134 32.4262C13.8471 32.384 13.8809 32.3418 13.9146 32.2996L14.2838 31.827H14.5497L14.018 32.4852L14.5623 33.3333Z" fill="#5C0507"/>
<path d="M15.8569 32.8017C15.8569 32.9058 15.8358 33 15.7936 33.0844C15.7528 33.1674 15.6902 33.2335 15.6058 33.2827C15.5214 33.3305 15.4159 33.3544 15.2893 33.3544C15.1079 33.3544 14.9694 33.3038 14.8737 33.2025C14.7795 33.0999 14.7324 32.9648 14.7324 32.7975V31.827H14.9666V32.7869C14.9666 32.9107 14.994 33.0042 15.0488 33.0675C15.1037 33.1294 15.1867 33.1603 15.2978 33.1603C15.3751 33.1603 15.437 33.1449 15.4834 33.1139C15.5313 33.083 15.5664 33.0401 15.5889 32.9852C15.6114 32.929 15.6227 32.8622 15.6227 32.7848V31.827H15.8569V32.8017Z" fill="#5C0507"/>
<path d="M16.079 33.4958H16.3259V31.9979H16.079V31.827H16.5326V33.6667H16.079V33.4958Z" fill="#5C0507"/>
</svg>
